<svg width="38" height="40" viewBox="0 0 38 40" fill="none" xmlns="http://www.w3.org/2000/svg">
<g clip-path="url(#clip0_1_147)">
<path d="M31.4392 12.994H31.0908V9.61065C31.0908 8.19862 29.942 7.04977 28.5299 7.04977H9.95579C7.90612 7.04977 6.21616 8.61754 6.02108 10.6168C5.99129 10.7581 6.0019 9.49929 6.0019 28.9963C6.0019 31.1765 7.77557 32.9501 9.95574 32.9501H31.4391C32.8512 32.9501 34 31.8013 34 30.3893V15.5549C34.0001 14.1428 32.8513 12.994 31.4392 12.994ZM9.95579 8.80883H28.5299C28.9721 8.80883 29.3318 9.16854 29.3318 9.61071V12.994H9.95579C8.77985 12.994 7.81718 12.0643 7.76353 10.9014C7.81713 9.73846 8.77979 8.80883 9.95579 8.80883ZM31.4392 31.1911H9.95579C8.74555 31.1911 7.76095 30.2065 7.76095 28.9963V14.0864C8.3893 14.5073 9.14435 14.753 9.95579 14.753H31.4392C31.8814 14.753 32.2411 15.1127 32.2411 15.5549V19.1205H25.6224C23.3683 19.1205 21.5345 20.9543 21.5345 23.2084C21.5345 25.4625 23.3683 27.2963 25.6224 27.2963H32.2411V30.3893C32.2411 30.8314 31.8814 31.1911 31.4392 31.1911ZM32.2411 25.5373H25.6224C24.3382 25.5373 23.2934 24.4926 23.2934 23.2084C23.2934 21.9242 24.3382 20.8795 25.6224 20.8795H32.2411V25.5373Z" fill="#009FDF"/>
<path d="M25.9469 24.4832C26.6508 24.4832 27.2215 23.9125 27.2215 23.2085C27.2215 22.5046 26.6508 21.9339 25.9469 21.9339C25.2429 21.9339 24.6722 22.5046 24.6722 23.2085C24.6722 23.9125 25.2429 24.4832 25.9469 24.4832Z" fill="#009FDF"/>
</g>
<defs>
<clipPath id="clip0_1_147">
<rect width="28" height="28" fill="white" transform="translate(6 6)"/>
</clipPath>
</defs>
</svg>
