<svg width="32" height="29" viewBox="0 0 32 29" fill="none" xmlns="http://www.w3.org/2000/svg">
<path d="M31.8169 0.280336C31.6997 0.177733 31.5407 0.120056 31.3749 0.120056L15.9998 0.120768C15.6547 0.120768 15.3749 0.365811 15.3749 0.667985V2.23286L9.45043 3.62274C9.11698 3.70099 8.9191 4.00103 9.00848 4.29292L12.079 14.3257L9.42274 16.6513C9.08467 16.2191 8.51703 15.9349 7.87495 15.9349H1.87499C0.841084 15.9349 0 16.6714 0 17.5765V26.4959C0 27.4011 0.841084 28.1376 1.87499 28.1376H7.87501C8.75335 28.1376 9.49224 27.6059 9.69475 26.891L10.4379 27.4584C11.0116 27.8964 11.7466 28.1376 12.5078 28.1376H31.375C31.7201 28.1376 32 27.8926 32 27.5904V0.667273C31.9999 0.522151 31.9341 0.382939 31.8169 0.280336ZM8.4999 26.496C8.4999 26.7977 8.21952 27.0432 7.87489 27.0432H1.87492C1.53029 27.0432 1.24991 26.7977 1.24991 26.496V17.5766C1.24991 17.2748 1.53029 17.0293 1.87492 17.0293H4.24992V23.333C4.24992 23.6352 4.5298 23.8802 4.87494 23.8802C5.22007 23.8802 5.49995 23.6352 5.49995 23.333V17.0293H7.87495C8.21958 17.0293 8.49997 17.2748 8.49997 17.5766L8.4999 26.496ZM10.3776 4.53823L15.3749 3.36588V5.39359L14.956 5.49187C14.7958 5.52946 14.6594 5.62112 14.5765 5.74682C14.4936 5.87251 14.4711 6.02185 14.5141 6.16205C14.7542 6.94681 14.2204 7.75631 13.3241 7.9666C13.1638 8.00425 13.0271 8.09608 12.9443 8.22204C12.8615 8.34796 12.8391 8.49757 12.8825 8.63788L15.3187 16.5363H14.0643L13.4178 14.322C13.3973 14.2516 13.3613 14.1866 13.3131 14.1301L10.3776 4.53823ZM15.3749 7.90307V12.5205L14.2349 8.82491C14.7111 8.60964 15.1008 8.28755 15.3749 7.90307ZM24.3541 27.0431H12.5077C12.0486 27.0431 11.6053 26.8977 11.2593 26.6336L9.74993 25.4811V17.9127L12.4786 15.5236L12.9735 17.2189C13.0443 17.4612 13.2935 17.6306 13.579 17.6306L25.8671 17.6312C26.3496 17.6312 26.7421 17.9749 26.7421 18.3973C26.7421 18.8198 26.3496 19.1634 25.8671 19.1634H19.5707C19.2256 19.1634 18.9457 19.4085 18.9457 19.7107C18.9457 20.0128 19.2256 20.2579 19.5707 20.2579H27.8234C28.3059 20.2579 28.6984 20.6015 28.6984 21.024C28.6984 21.4464 28.3059 21.7901 27.8234 21.7901H19.5707C19.2256 21.7901 18.9457 22.0351 18.9457 22.3373C18.9457 22.6395 19.2256 22.8845 19.5707 22.8845H26.486C26.9686 22.8845 27.3611 23.2282 27.3611 23.6506C27.3611 24.0731 26.9686 24.4167 26.486 24.4167H19.5707C19.2256 24.4167 18.9457 24.6618 18.9457 24.9639C18.9457 25.2661 19.2256 25.5112 19.5707 25.5112H24.3541C24.8366 25.5112 25.2291 25.8548 25.2291 26.2773C25.2291 26.6995 24.8366 27.0431 24.3541 27.0431ZM30.75 27.0431H26.2899C26.411 26.8093 26.4791 26.5501 26.4791 26.277C26.4791 26.004 26.411 25.7448 26.2899 25.5109H26.486C27.6578 25.5109 28.611 24.6763 28.611 23.6505C28.611 23.3512 28.5295 23.0685 28.3855 22.8178C29.2852 22.6014 29.9483 21.8793 29.9483 21.0239C29.9483 20.6089 29.7922 20.2252 29.5289 19.9155V12.98C29.5289 12.6779 29.249 12.4328 28.9039 12.4328C28.5587 12.4328 28.2788 12.6779 28.2788 12.98V19.2069C28.132 19.1788 27.9796 19.1634 27.8233 19.1634H27.8028C27.924 18.9296 27.992 18.6704 27.992 18.3973C27.992 17.3714 27.0387 16.5368 25.867 16.5368H24.8623C25.9292 16.1363 26.6784 15.2079 26.6784 14.1288C26.6784 12.6848 25.3366 11.5099 23.6873 11.5099C22.038 11.5099 20.6961 12.6848 20.6961 14.1288C20.6961 15.2079 21.4455 16.1363 22.5123 16.5368H19.0957V6.13195C20.2123 5.91892 21.0933 5.14761 21.3365 4.17001H26.038C26.2812 5.14761 27.1623 5.91892 28.2788 6.13195V7.83325C28.2788 8.13542 28.5587 8.38047 28.9038 8.38047C29.2489 8.38047 29.5288 8.13542 29.5288 7.83325V5.64339C29.5288 5.34122 29.2489 5.09618 28.9038 5.09618C27.9758 5.09618 27.221 4.43519 27.221 3.62279C27.221 3.32062 26.9411 3.07558 26.596 3.07558H20.7786C20.4335 3.07558 20.1536 3.32062 20.1536 3.62279C20.1536 4.43525 19.3987 5.09618 18.4708 5.09618C18.1257 5.09618 17.8458 5.34122 17.8458 5.64339V16.5368H16.625V1.21509L30.75 1.21449V27.0431ZM23.6874 15.6533C22.7273 15.6533 21.9463 14.9694 21.9463 14.1289C21.9463 13.2883 22.7274 12.6044 23.6874 12.6044C24.6474 12.6044 25.4285 13.2883 25.4285 14.1288C25.4285 14.9693 24.6475 15.6533 23.6874 15.6533Z" fill="#009FDF"/>
</svg>
