<svg width="39" height="40" viewBox="0 0 39 40" fill="none" xmlns="http://www.w3.org/2000/svg">
<g clip-path="url(#clip0_1_115)">
<path d="M31 9H28V7.00002C28 6.44771 27.5523 6 27 6C26.4477 6 26 6.44771 26 7.00002V9H14V7.00002C14 6.44771 13.5523 6 13 6C12.4478 6 12 6.44771 12 7.00002V9H9C7.34314 9 6 10.3431 6 12V31C6 32.6569 7.34314 34 9 34H31C32.6569 34 34 32.6569 34 31V12C34 10.3431 32.6569 9 31 9ZM32 31C32 31.5523 31.5522 32 30.9999 32H9C8.44769 32 7.99998 31.5523 7.99998 31V18H32V31ZM32 16H7.99998V12C7.99998 11.4477 8.44769 11 9 11H12V13C12 13.5523 12.4477 14 13 14C13.5523 14 14 13.5523 14 13V11H26V13C26 13.5523 26.4477 14 27 14C27.5523 14 28.0001 13.5523 28.0001 13V11H31.0001C31.5524 11 32.0001 11.4477 32.0001 12V16H32Z" fill="#009FDF"/>
<path d="M13.9998 20H11.9998C11.4475 20 10.9998 20.4477 10.9998 21C10.9998 21.5523 11.4475 22 11.9998 22H13.9998C14.5521 22 14.9998 21.5523 14.9998 21C14.9998 20.4477 14.5521 20 13.9998 20Z" fill="#009FDF"/>
<path d="M20.9997 20H18.9998C18.4475 20 17.9998 20.4477 17.9998 21C17.9998 21.5523 18.4475 22 18.9998 22H20.9997C21.552 22 21.9998 21.5523 21.9998 21C21.9998 20.4477 21.552 20 20.9997 20Z" fill="#009FDF"/>
<path d="M27.9998 20H25.9998C25.4475 20 24.9998 20.4477 24.9998 21C24.9998 21.5523 25.4475 22 25.9998 22H27.9998C28.5521 22 28.9998 21.5523 28.9998 21C28.9997 20.4477 28.552 20 27.9998 20Z" fill="#009FDF"/>
<path d="M13.9998 24.0001H11.9998C11.4475 24.0001 10.9998 24.4478 10.9998 25.0001C10.9998 25.5524 11.4475 26.0002 11.9998 26.0002H13.9998C14.5521 26.0002 14.9998 25.5524 14.9998 25.0001C14.9998 24.4478 14.5521 24.0001 13.9998 24.0001Z" fill="#009FDF"/>
<path d="M20.9997 24.0001H18.9998C18.4475 24.0001 17.9998 24.4478 17.9998 25.0001C17.9998 25.5524 18.4475 26.0002 18.9998 26.0002H20.9997C21.552 26.0002 21.9998 25.5524 21.9998 25.0001C21.9998 24.4478 21.552 24.0001 20.9997 24.0001Z" fill="#009FDF"/>
<path d="M27.9998 24.0001H25.9998C25.4475 24.0001 24.9998 24.4478 24.9998 25.0001C24.9998 25.5524 25.4475 26.0002 25.9998 26.0002H27.9998C28.5521 26.0002 28.9998 25.5524 28.9998 25.0001C28.9997 24.4478 28.552 24.0001 27.9998 24.0001Z" fill="#009FDF"/>
<path d="M13.9998 27.9999H11.9998C11.4475 27.9999 10.9998 28.4476 10.9998 28.9999C10.9998 29.5522 11.4475 29.9999 11.9998 29.9999H13.9998C14.5521 29.9999 14.9998 29.5522 14.9998 28.9999C14.9998 28.4476 14.5521 27.9999 13.9998 27.9999Z" fill="#009FDF"/>
<path d="M20.9997 27.9999H18.9998C18.4475 27.9999 17.9998 28.4476 17.9998 28.9999C17.9998 29.5522 18.4475 29.9999 18.9998 29.9999H20.9997C21.552 29.9999 21.9998 29.5522 21.9998 28.9999C21.9998 28.4476 21.552 27.9999 20.9997 27.9999Z" fill="#009FDF"/>
<path d="M27.9998 27.9999H25.9998C25.4475 27.9999 24.9998 28.4476 24.9998 28.9999C24.9998 29.5522 25.4475 29.9999 25.9998 29.9999H27.9998C28.5521 29.9999 28.9998 29.5522 28.9998 28.9999C28.9998 28.4476 28.552 27.9999 27.9998 27.9999Z" fill="#009FDF"/>
</g>
<defs>
<clipPath id="clip0_1_115">
<rect width="28" height="28" fill="white" transform="translate(6 6)"/>
</clipPath>
</defs>
</svg>
