<svg width="180" height="42" viewBox="0 0 180 42" fill="none" xmlns="http://www.w3.org/2000/svg">
<g clip-path="url(#clip0_946_9552)">
<path d="M1.06495 20.9327C1.08357 24.9758 2.28958 28.9227 4.53076 32.2752C6.77194 35.6278 9.94784 38.2357 13.6576 39.7699C17.3674 41.3041 21.4448 41.6958 25.3751 40.8956C29.3054 40.0953 32.9126 38.139 35.7413 35.2735C38.57 32.408 40.4934 28.7617 41.2688 24.795C42.0443 20.8282 41.6369 16.7187 40.0982 12.9852C38.5595 9.25164 35.9584 6.0614 32.6232 3.8171C29.288 1.5728 25.3682 0.375044 21.3586 0.375C15.9659 0.394288 10.801 2.56941 6.99664 6.42328C3.19229 10.2771 1.0591 15.4951 1.06495 20.9327ZM1.75607 20.9327C1.74855 15.6794 3.80839 10.6377 7.48349 6.9142C11.1586 3.19065 16.1487 1.08949 21.3586 1.07187C32.1651 1.07187 40.961 10.0045 40.961 20.9327C40.961 26.175 38.8958 31.2025 35.2196 34.9093C31.5434 38.6161 26.5575 40.6986 21.3586 40.6986C16.1597 40.6986 11.1737 38.6161 7.4975 34.9093C3.82132 31.2025 1.75607 26.175 1.75607 20.9327ZM7.37922 15.2944C12.5626 11.8417 18.3114 9.84613 28.0498 11.525C28.3 11.4065 28.5187 11.2299 28.688 11.0096C28.8573 10.7894 28.9723 10.5317 29.0236 10.2579C26.6047 9.37099 23.9659 9.05423 20.5418 9.11758C17.4946 9.21261 11.9657 10.3529 9.04417 12.1268L9.95518 10.9865C12.0285 9.78278 17.3689 8.13563 21.39 8.07227C24.2173 8.00892 25.6937 8.1673 29.055 9.08591C28.7723 8.48406 28.0498 8.19898 27.0445 7.75551C23.7775 6.26674 17.6831 6.14004 12.6882 8.35736C13.3349 7.90935 14.018 7.51728 14.7302 7.18535C16.3637 6.42512 19.0653 5.69657 22.4266 5.72825C25.1283 5.75992 28.3011 6.71021 30.2802 8.67412C30.5569 9.00739 30.7603 9.39605 30.8771 9.81446C32.4164 10.6064 33.3274 11.3666 33.83 12.2218C34.0518 12.6842 34.118 13.2069 34.0185 13.7106C34.518 13.9893 34.9477 14.3794 35.2751 14.8509C35.5069 15.1918 35.6574 15.5821 35.7149 15.9913C35.7838 16.2815 35.7856 16.5839 35.7202 16.875C35.6549 17.166 35.5241 17.4381 35.3379 17.6701C35.8271 17.9702 36.1861 18.4453 36.3432 19.0005C36.5945 20.1725 35.8405 21.3445 34.8353 22.2315C33.7044 23.2451 31.1912 24.4488 29.1493 24.9873C25.0654 26.0326 21.4842 26.476 18.6255 26.9829C20.5432 27.4863 22.5185 27.7313 24.5 27.7114C30.5629 27.7114 35.9348 24.7972 35.9348 24.7972C35.9348 24.7972 35.8091 25.1773 35.6835 25.5258C31.8195 27.8698 25.6937 28.8834 23.0863 28.7567C20.679 28.6582 18.2936 28.2538 15.9867 27.553C15.3136 27.7318 14.6525 27.954 14.0076 28.2182C17.4004 29.8337 19.9135 30.1821 22.7722 30.4039C25.6309 30.6256 30.4687 29.8971 34.5525 28.4083C34.3641 28.5983 34.2698 28.8834 34.0813 29.0735C32.008 30.1821 27.61 31.2908 25.411 31.3858C23.0042 31.5029 20.5919 31.3542 18.2171 30.9424C16.3709 30.5615 14.5775 29.9552 12.8767 29.1368C12.5943 29.3402 12.4025 29.6474 12.3427 29.9921C18.9711 33.5398 25.2539 33.6348 32.3535 31.3858L31.6938 32.0194C23.8403 35.2503 17.7145 33.9833 12.971 31.6709C12.8139 31.6076 12.6254 31.5125 12.4997 31.4492C12.9395 32.2411 16.5522 34.9019 20.6046 35.2503C23.4005 35.472 26.7932 34.9969 28.8351 34.1733L27.6414 34.8068C25.3973 35.8702 22.9213 36.339 20.4475 36.1689C15.6097 35.8521 12.9081 33.6665 11.683 32.5262C11.1522 32.0194 10.7994 31.3523 10.6777 30.6256C9.70667 30.1758 8.88758 29.449 8.32164 28.535C8.18527 28.2919 8.09836 28.0238 8.06599 27.7464C8.03363 27.469 8.05646 27.1879 8.13316 26.9195C8.15617 26.7669 8.1984 26.6179 8.25882 26.476C7.72477 26.0959 7.19073 25.6841 6.97083 25.2724C6.49962 24.3854 6.78235 23.6569 7.1279 23.055C6.84532 22.7753 6.62102 22.4414 6.4682 22.0731C6.34904 21.6839 6.30636 21.275 6.34255 20.8694C6.47107 20.1239 6.80906 19.4313 7.31639 18.8738C8.38447 17.6384 10.018 16.6882 12.8767 15.7379C15.6726 14.8193 16.7721 14.6609 18.8768 14.1857C21.3271 13.6156 24.2487 13.4255 26.7304 12.5703C19.9135 11.2716 12.7825 12.3802 7.00225 16.4347L7.37922 15.2944ZM30.6886 11.0181C30.5286 11.3997 30.2935 11.7446 29.9975 12.0318C30.7561 12.2375 31.5011 12.4914 32.2279 12.792C32.1336 12.1268 31.3483 11.4616 30.6886 11.0181ZM9.60963 24.8922C9.2234 24.6932 8.85546 24.46 8.51013 24.1954C8.32164 24.6388 8.69862 25.114 9.07559 25.3357C9.26407 25.1773 9.45256 25.0506 9.60963 24.8922ZM32.6677 15.8329C33.1344 16.0433 33.5858 16.2868 34.0185 16.5614C34.3326 15.9596 34.1442 15.5795 33.4845 15.0093C33.2529 15.322 32.9778 15.5994 32.6677 15.8329ZM31.2226 16.7198C29.7721 17.3499 28.2687 17.8481 26.7304 18.2086C25.0654 18.6204 20.9502 19.2222 16.5522 20.2042C15.1385 20.521 11.3688 21.4079 9.51539 23.0234C9.95625 23.3566 10.43 23.6432 10.929 23.8786C11.9701 23.2392 13.1044 22.7689 14.2904 22.4849C16.6476 21.8664 19.0393 21.3904 21.4528 21.0594C23.8717 20.6477 28.3953 19.6974 30.9085 18.7788C31.6761 18.5156 32.3972 18.1306 33.0447 17.6384C32.8876 17.4484 31.2855 16.6565 31.2226 16.7198ZM12.1856 27.3947C12.6124 27.1477 13.053 26.9256 13.505 26.7295C12.8139 26.4444 12.0914 26.0959 11.3374 25.7792C11.0317 25.9694 10.7473 26.1924 10.4892 26.4444L12.1856 27.3947ZM9.86094 27.6164C9.86094 28.0598 10.1123 28.4716 10.7405 28.9785C10.8103 28.729 10.9398 28.5005 11.1175 28.3133C10.6789 28.1191 10.2584 27.8859 9.86094 27.6164ZM13.2851 19.1589C18.2485 17.7018 23.4319 17.2266 28.7095 15.8329C26.6362 15.2627 25.5052 15.0093 23.3377 15.2627C20.086 15.6544 16.8713 16.3112 13.7249 17.2266C12.5626 17.5751 6.43679 19.3489 8.19599 21.8197C8.19599 21.8513 9.23266 20.3626 13.2851 19.1589ZM31.8509 14.0274C30.9175 13.6082 29.9507 13.2691 28.9608 13.0137C28.4092 13.4529 27.7949 13.8053 27.1388 14.059C28.3091 14.303 29.4632 14.6204 30.5943 15.0093C30.7828 15.1044 31.6938 14.2174 31.8509 14.0274ZM34.3012 18.8421C34.1442 18.9688 33.9871 19.0955 33.7986 19.2539C32.6677 20.1408 30.9085 20.8377 28.4582 21.5029C23.3691 22.8967 19.6622 23.0867 15.4527 24.132C14.6036 24.3346 13.7734 24.6101 12.971 24.9556C13.789 25.3689 14.6278 25.739 15.4841 26.0643C17.1178 25.5562 18.7876 25.175 20.479 24.9239C21.4214 24.7655 24.3429 24.2587 26.4163 23.7836C30.2174 22.96 35.7777 21.1861 34.3012 18.8421Z" fill="white"/>
<path fill-rule="evenodd" clip-rule="evenodd" d="M60.3425 19.5389H64.1122L64.552 16.783H67.1279L67.5677 19.5389H71.3375L68.1646 3.57414H63.5153L60.3425 19.5389ZM65.84 8.42058L66.5625 13.267H65.1488L65.84 8.42058ZM74.9187 9.846C75.1302 9.87381 75.3451 9.85213 75.547 9.78265C75.748 9.70171 75.938 9.59527 76.1124 9.46589C76.2719 9.32544 76.4003 9.15277 76.4894 8.95907C76.5852 8.77261 76.6388 8.56707 76.6465 8.35722C76.6349 8.15137 76.5925 7.94846 76.5208 7.75538C76.4311 7.5711 76.3024 7.40891 76.1438 7.28024C75.9836 7.15465 75.8029 7.05817 75.6098 6.99515C75.4153 6.94281 75.2139 6.92144 75.0129 6.9318C74.3095 6.93864 73.6148 7.08951 72.971 7.37527V3.98593C74.0271 3.70698 75.1149 3.56855 76.2067 3.57414C79.2224 3.57414 80.6047 5.63308 80.6047 7.597C80.6305 8.37431 80.4105 9.13977 79.9764 9.78265C79.5501 10.4296 78.9355 10.9276 78.2172 11.2081V11.3664C78.9953 11.5963 79.6716 12.0882 80.1334 12.7602C80.6048 13.4331 80.8272 14.2514 80.7617 15.0725C80.7617 17.9867 78.657 19.5705 75.9553 19.5705C74.7433 19.63 73.5381 19.3562 72.4684 18.7786L72.5312 15.5794C73.3011 15.9248 74.1394 16.0874 74.9815 16.0545C75.1826 16.0823 75.3874 16.0606 75.5784 15.9911C75.7786 15.9292 75.9615 15.8207 76.1124 15.6744C76.2719 15.5339 76.4003 15.3613 76.4894 15.1676C76.5789 14.9802 76.6221 14.7736 76.615 14.5657C76.615 13.7105 76.0496 13.1086 74.7616 13.1086H73.3166V9.846H74.9187ZM82.4895 3.60582H92.6049V19.5705H88.898V7.43862H86.1964V19.5705H82.4895V3.60582ZM94.7411 19.5389H98.4165V14.2806H99.6731C103.349 14.2806 104.479 10.9863 104.479 8.89572C104.479 6.8051 103.192 3.57414 99.6731 3.57414H94.7411V19.5389ZM98.3851 7.12186H99.2647C100.113 7.12186 100.647 7.62867 100.647 8.92739C100.647 10.6696 99.7673 10.7646 99.2647 10.7646H98.3851V7.12186ZM111.328 19.6022C115.726 19.6022 117.202 15.611 117.202 11.6199C117.202 7.62867 115.726 3.63749 111.328 3.63749C106.93 3.63749 105.453 7.62867 105.453 11.6199C105.453 15.611 106.93 19.6022 111.328 19.6022ZM111.328 15.8328C110.008 15.8328 109.349 14.344 109.349 11.5882C109.349 8.83236 110.008 7.34359 111.328 7.34359C112.647 7.34359 113.307 8.83236 113.307 11.5882C113.307 14.344 112.647 15.8328 111.328 15.8328ZM133.349 19.4755H137.779C138.455 19.5017 139.13 19.383 139.758 19.1271C140.389 18.8751 140.958 18.4857 141.423 17.9867C141.889 17.4947 142.252 16.9129 142.491 16.2762C142.715 15.6367 142.8 14.9563 142.742 14.2806C142.742 10.2261 139.632 9.52924 137.622 9.52924H136.993V7.43862H141.925V3.63749H133.381V19.5072H133.349V19.4755ZM136.962 16.3079V12.6968H137.496C137.936 12.6968 139.098 12.6968 139.098 14.344C139.098 15.9911 137.936 16.3396 137.496 16.3396L136.962 16.3079ZM156.062 3.60582H159.674V9.33918H162.25V3.60582H165.894V19.5389H162.25V13.1403H159.674V19.5072H156.062V3.60582ZM168.345 3.60582H171.957V9.33918H172.743L174.816 3.60582H178.774L175.947 11.1447L179.183 19.5072H174.91L172.837 13.1086H171.957V19.5072H168.345V3.60582ZM53.1172 3.63749H60.7194V7.597H56.8869V19.5072H53.1172V3.63749ZM118.993 3.60582H122.134L124.899 7.37527L127.695 3.60582H130.836V19.5705H127.129V9.81432L124.899 12.6018L122.668 9.81432V19.5389H118.961V3.60582H118.993ZM143.465 19.5705H147.234L147.674 16.8147H150.281L150.721 19.5705H154.491L151.318 3.60582H146.669L143.465 19.5705ZM148.962 8.45225L149.653 13.2987H148.24L148.962 8.45225Z" fill="white"/>
<path fill-rule="evenodd" clip-rule="evenodd" d="M137.496 22.4877V31.0719L140.826 22.4877H144.219V38.389H140.857V29.8048L137.496 38.389H134.135V22.4877H137.496ZM111.831 22.4877V38.389H115.192L118.553 29.8048V38.389H121.915V22.4877H118.553L115.223 31.0719V22.4877H111.831ZM100.773 22.361V31.1036C100.773 33.9227 100.396 34.5879 99.6104 34.5879C99.3256 34.5612 99.0425 34.5189 98.7623 34.4612V38.199C99.2421 38.3907 99.754 38.4875 100.27 38.4841C104.228 38.4841 104.228 34.6513 104.228 32.4973V26.1938H105.673V38.2623H109.129V22.361H100.773ZM124.836 28.6645V32.0222H126.344C127.601 32.0222 128.166 32.5923 128.166 33.4793C128.162 33.6897 128.108 33.8961 128.009 34.0811C127.912 34.2698 127.784 34.441 127.632 34.5879C127.473 34.7232 127.292 34.8303 127.098 34.9047C126.907 34.9725 126.702 34.9942 126.501 34.968C125.659 35.0039 124.82 34.8412 124.051 34.4929L123.988 37.6922C125.069 38.2699 126.284 38.5434 127.506 38.4841C130.177 38.4841 132.313 36.8686 132.313 33.9544C132.378 33.1431 132.155 32.3348 131.684 31.6737C131.223 31.0018 130.546 30.5098 129.768 30.28V30.1216C130.48 29.828 131.083 29.3189 131.496 28.6645C131.901 27.9996 132.099 27.2268 132.061 26.4472C132.061 24.4516 130.711 22.3926 127.663 22.3926C126.572 22.3871 125.484 22.5255 124.428 22.8044V26.1304C125.071 25.8494 125.769 25.7194 126.47 25.7503C126.671 25.7241 126.875 25.7458 127.067 25.8137C127.26 25.8767 127.44 25.9731 127.601 26.0987C127.752 26.2343 127.88 26.395 127.978 26.5739C128.067 26.7613 128.11 26.9678 128.103 27.1757C128.071 27.6001 127.88 27.9963 127.569 28.2844C127.246 28.5634 126.832 28.7103 126.407 28.6962H124.836V28.6645ZM159.235 38.3574H163.004V26.4472H166.837V22.456H159.235V38.3574ZM146.857 38.3574H150.47V32.0222H153.046V38.389H156.69V22.456H153.046V28.1894H150.47V22.456H146.857V38.3574ZM65.2118 38.104H69.4842C70.1492 38.1102 70.8096 37.992 71.4319 37.7555C71.9708 37.5522 72.4626 37.2396 72.8769 36.8369C73.2718 36.4399 73.5818 35.9656 73.7879 35.4432C74.0064 34.8893 74.1132 34.297 74.1021 33.701C74.107 33.2857 74.0648 32.8712 73.9764 32.4656C73.8888 32.0738 73.7625 31.6918 73.5994 31.3253C73.4237 30.9892 73.2016 30.6799 72.9397 30.4067C72.6527 30.1338 72.3095 29.9283 71.9345 29.8048C71.9973 29.8048 72.0916 29.7098 72.28 29.6148C72.4951 29.4543 72.6949 29.274 72.8769 29.0763C73.1106 28.7776 73.301 28.447 73.4424 28.0943C73.6151 27.6176 73.7003 27.1131 73.6937 26.6056C73.7022 26.0406 73.5952 25.4799 73.3795 24.9584C73.1954 24.4584 72.906 24.0045 72.5314 23.628C72.145 23.2435 71.6855 22.9418 71.1805 22.7411C70.6101 22.518 70.0016 22.4104 69.3899 22.4243H65.2118V38.104ZM68.7616 28.5695V25.782H69.2957C69.4258 25.7799 69.5543 25.8107 69.6695 25.8716C69.7847 25.9324 69.883 26.0214 69.9554 26.1304C70.1423 26.4451 70.23 26.8097 70.2067 27.1757C70.2249 27.5514 70.1378 27.9246 69.9554 28.2527C69.883 28.3617 69.7847 28.4507 69.6695 28.5116C69.5543 28.5724 69.4258 28.6032 69.2957 28.6011H68.7616V28.5695ZM68.7616 34.7463V31.6104H69.3899C69.5443 31.6089 69.6966 31.6457 69.8335 31.7175C69.9705 31.7893 70.0878 31.8939 70.1753 32.0222C70.4127 32.3638 70.5239 32.7785 70.4894 33.1942C70.519 33.6094 70.4082 34.0225 70.1753 34.3662C70.083 34.4894 69.9646 34.5902 69.8287 34.6615C69.6928 34.7327 69.543 34.7725 69.3899 34.778H68.7616V34.7463ZM75.3901 22.456V26.3521H78.4058V38.104H82.0499V26.3521H85.0656V22.456H75.3901ZM92.071 22.361C96.3434 22.361 97.7884 26.3838 97.7884 30.4067C97.7884 34.4295 96.3434 38.4524 92.071 38.4524C87.7987 38.4524 86.3536 34.4295 86.3536 30.4067C86.3536 26.3838 87.7987 22.361 92.071 22.361ZM92.071 26.1621C90.8145 26.1621 90.1548 27.6509 90.1548 30.4067C90.1548 33.1625 90.8145 34.6513 92.071 34.6513C93.3276 34.6513 93.9873 33.1625 93.9873 30.4067C93.9873 27.6509 93.3276 26.1621 92.071 26.1621ZM60.751 22.456L63.8296 38.1356H60.1541L59.7143 35.4432H57.2012L56.7614 38.1356H53.0859L56.1645 22.456H60.751ZM57.7981 31.9588H59.1489L58.4578 27.1757L57.7981 31.9588Z" fill="white"/>
</g>
<defs>
<clipPath id="clip0_946_9552">
<rect width="198.485" height="41.25" fill="white" transform="translate(-8.48047 0.375)"/>
</clipPath>
</defs>
</svg>
