<svg width="23" height="23" viewBox="0 0 23 23" fill="none" xmlns="http://www.w3.org/2000/svg">
<g clip-path="url(#clip0_946_9584)">
<path d="M25.3999 11.35V11.05C19.1999 10.85 16.3699 10.7 14.0999 8.49995C11.8999 6.22995 11.7399 3.39995 11.5499 -2.80005H11.2499C11.0499 3.39995 10.8999 6.22995 8.6999 8.49995C6.4299 10.7 3.5999 10.86 -2.6001 11.05V11.35C3.5999 11.55 6.4299 11.7 8.6999 13.9C10.8999 16.17 11.0599 19 11.2499 25.2H11.5499C11.7499 19 11.8999 16.17 14.0999 13.9C16.3699 11.7 19.1999 11.54 25.3999 11.35Z" fill="#323232"/>
</g>
<defs>
<clipPath id="clip0_946_9584">
<rect width="22.4" height="22.4" fill="white" transform="translate(0.400391 0.200012)"/>
</clipPath>
</defs>
</svg>
