<svg width="23" height="23" viewBox="0 0 23 23" fill="none" xmlns="http://www.w3.org/2000/svg">
<g clip-path="url(#clip0_946_9573)">
<path fill-rule="evenodd" clip-rule="evenodd" d="M22.0866 5.75241C22.2416 5.24281 22.0866 4.86761 21.3446 4.86761H18.8946C18.2712 4.86761 17.9837 5.19148 17.8278 5.54895C17.8278 5.54895 16.5818 8.53188 14.8169 10.4695C14.2457 11.0313 13.9862 11.2096 13.6745 11.2096C13.5186 11.2096 13.2844 11.0313 13.2844 10.5208V5.75241C13.2844 5.14015 13.1126 4.86761 12.5937 4.86761H8.74088C8.35168 4.86761 8.11742 5.15135 8.11742 5.42108C8.11742 6.00068 9.00035 6.13508 9.09088 7.76655V11.3113C9.09088 12.0888 8.94808 12.2297 8.63635 12.2297C7.80568 12.2297 5.78502 9.23282 4.58568 5.80375C4.35328 5.13641 4.11808 4.86761 3.49182 4.86761H1.03995C0.339951 4.86761 0.199951 5.19148 0.199951 5.54895C0.199951 6.18548 1.03062 9.34762 4.06862 13.5299C6.09395 16.3859 8.94528 17.9343 11.5428 17.9343C13.1005 17.9343 13.2928 17.5908 13.2928 16.9981V14.8393C13.2928 14.1515 13.4402 14.0143 13.934 14.0143C14.298 14.0143 14.9205 14.1935 16.3746 15.5701C18.0359 17.2025 18.3094 17.9343 19.2446 17.9343H21.6946C22.3946 17.9343 22.7456 17.5908 22.544 16.9113C22.3218 16.2356 21.5285 15.2547 20.4766 14.0908C19.9054 13.4281 19.0486 12.7141 18.7882 12.3567C18.4251 11.8984 18.5288 11.694 18.7882 11.2861C18.7882 11.2861 21.7749 7.15522 22.0857 5.75241H22.0866Z" fill="#323232"/>
</g>
<defs>
<clipPath id="clip0_946_9573">
<rect width="22.4" height="22.4" fill="white" transform="translate(0.199951 0.200012)"/>
</clipPath>
</defs>
</svg>
