<svg width="23" height="23" viewBox="0 0 23 23" fill="none" xmlns="http://www.w3.org/2000/svg">
<g clip-path="url(#clip0_946_9579)">
<path d="M21.9339 6.27308C21.8071 5.82063 21.56 5.41101 21.219 5.08775C20.8683 4.75455 20.4385 4.51621 19.9702 4.39522C18.2174 3.93322 11.195 3.93322 11.195 3.93322C8.26742 3.89991 5.34058 4.04641 2.43098 4.37188C1.96262 4.50182 1.53364 4.74548 1.18218 5.08122C0.836843 5.41348 0.586709 5.82322 0.456043 6.27215C0.142156 7.96311 -0.0103514 9.68007 0.000576038 11.3999C-0.010624 13.1181 0.141509 14.8345 0.456043 16.5276C0.583909 16.9747 0.833109 17.3826 1.17938 17.712C1.52564 18.0415 1.95684 18.2795 2.43098 18.4055C4.20711 18.8666 11.195 18.8665 11.195 18.8665C14.1263 18.8999 17.0568 18.7534 19.9702 18.4279C20.4385 18.3069 20.8683 18.0685 21.219 17.7353C21.5599 17.4122 21.8067 17.0025 21.933 16.55C22.2551 14.8597 22.4117 13.142 22.4006 11.4214C22.4248 9.69338 22.2684 7.96761 21.9339 6.27215V6.27308ZM8.96244 14.5956V8.20508L14.8051 11.4008L8.96244 14.5956Z" fill="#323232"/>
</g>
<defs>
<clipPath id="clip0_946_9579">
<rect width="22.4" height="22.4" fill="white" transform="translate(0 0.200012)"/>
</clipPath>
</defs>
</svg>
